PathFileType	4	(x/y/z)	S10_P20_T26
DataRate	CameraRate	NumFrames	NumMarkers	Units	OrigDataRate	OrigDataStartFrame	OrigNumFrames
240	240	4	51	mm	240	104	414
Frame#	Time	Sternum			R.Acromium			L.Acromium			Top.Head			R.ASIS			L.ASIS			R.PSIS			L.PSIS			R.Great.Tro			L.Great.Tro			R.Iliac.Crest			L.Iliac.Crest			V.Sacral			R.Thigh.Upper.Post			R.Thigh.Lower.Ant			R.Thigh.Lower.Post			R.Thigh.Upper.Ant			R.Knee.Lat			R.Knee.Med			R.Shank.Upper.Post			R.Shank.Lower.Ant			R.Shank.Lower.Post			R.Shank.Upper.Ant			R.Ankle.Lat			R.Ankle.Med			R.Heel.Upper			R.Heel.Med			R.Heel.Lat			R.Toe.Lat			R.Toe.Med			R.Toe.Tip			L.Thigh.Upper.Post			L.Thigh.Lower.Ant			L.Thigh.Lower.Post			L.Thigh.Upper.Ant			L.Knee.Lat			L.Knee.Med			L.Shank.Upper.Post			L.Shank.Lower.Ant			L.Shank.Lower.Post			L.Shank.Upper.Ant			L.Ankle.Lat			L.Ankle.Med			L.Heel.Upper			L.Heel.Med			L.Heel.Lat			L.Toe.Lat			L.Toe.Med			L.Toe.Tip			Cervical.Spine			Back			
		X1	Y1	Z1	X2	Y2	Z2	X3	Y3	Z3	X4	Y4	Z4	X5	Y5	Z5	X6	Y6	Z6	X7	Y7	Z7	X8	Y8	Z8	X9	Y9	Z9	X10	Y10	Z10	X11	Y11	Z11	X12	Y12	Z12	X13	Y13	Z13	X14	Y14	Z14	X15	Y15	Z15	X16	Y16	Z16	X17	Y17	Z17	X18	Y18	Z18	X19	Y19	Z19	X20	Y20	Z20	X21	Y21	Z21	X22	Y22	Z22	X23	Y23	Z23	X24	Y24	Z24	X25	Y25	Z25	X26	Y26	Z26	X27	Y27	Z27	X28	Y28	Z28	X29	Y29	Z29	X30	Y30	Z30	X31	Y31	Z31	X32	Y32	Z32	X33	Y33	Z33	X34	Y34	Z34	X35	Y35	Z35	X36	Y36	Z36	X37	Y37	Z37	X38	Y38	Z38	X39	Y39	Z39	X40	Y40	Z40	X41	Y41	Z41	X42	Y42	Z42	X43	Y43	Z43	X44	Y44	Z44	X45	Y45	Z45	X46	Y46	Z46	X47	Y47	Z47	X48	Y48	Z48	X49	Y49	Z49	X50	Y50	Z50	X51	Y51	Z51	

104	0.42917	-793.82	1274.1	302.01	-937.95	1425.3	442.71	-888.16	1470.7	151.75	-913.98	1751	330.79	-853.75	1012.3	396.54	-848.58	1018.6	166.61	-1054	1028.5	307.49	-1046	1035.4	227.21	-918.29	935.56	470.31	-917.26	956.91	109.58	-953.19	1091.9	436.86	-917.9	1094.3	138.03	-1072.5	998.19	270.43	-843.11	731.33	471.35	-769.46	672.64	430.31	-823.31	644.08	463.06	-788.67	762.24	433.14	-786.02	526.45	423.85	-794.57	523.32	294.15	-779.9	294.02	432.28	-696.39	257.65	423.95	-752.51	224.41	428.73	-719.1	331.93	426.23	-691.57	124.57	415.69	-682.95	139.14	337.56	-726.25	56.527	363.77	-704.87	35.826	337.09	-715.25	34.636	398.02	-554.91	86.421	455.78	-524.31	107.28	350.76	-481.31	144.25	395.5	-1010.4	696.58	122.53	-959.02	603.02	150.69	-1031.6	605.46	145.59	-931.45	687.19	127	-1021.1	510.96	158.01	-1011.7	512.17	288.37	-1130.1	319.27	162.48	-1090.8	217.49	185.98	-1146.3	243.96	175.75	-1073.9	291.85	171.89	-1154.1	116.82	195.35	-1139.7	128.14	282.33	-1228	90.755	239.32	-1221.5	57.154	271.33	-1222.5	62.171	206.87	-1046.1	41.05	175.38	-1024	43.637	286.34	-965.35	49.944	240.21	-991.38	1495.2	292.25	-1075.7	1290.2	257.73
105	0.43333	-788.43	1272.8	302.07	-932.31	1424.1	443.02	-882.97	1469.6	152.01	-908.7	1750	331.03	-848.32	1011.1	396.71	-843.19	1017.5	166.78	-1048.7	1027.3	307.88	-1040.8	1034.3	227.61	-912.9	934.18	470.54	-912.26	956.05	109.73	-947.65	1090.6	437.17	-912.55	1093.2	138.26	-1067.2	997.05	270.79	-838.13	729.97	471.54	-764.72	671.08	430.39	-818.65	642.65	463.14	-783.62	760.72	433.31	-780.98	525.39	423.78	-791.02	521.75	293.99	-771.94	293.05	432.56	-687.98	257.74	423.68	-743.65	223.76	428.9	-711.66	331.77	426.07	-681.37	124.6	415.65	-673.36	139.24	337.45	-715.52	56.018	363.98	-693.87	35.529	337.23	-703.9	34.263	398.22	-543.85	88.306	455.03	-514.13	109.58	349.85	-471.39	147.23	394.4	-1006.6	696.51	122.66	-955.83	602.53	150.67	-1028.1	605.53	145.55	-927.75	686.63	126.93	-1018.3	510.76	158.01	-1008.5	511.81	288.37	-1128.3	319.71	162.49	-1089.6	217.67	185.99	-1145	244.52	175.73	-1072.3	291.9	171.91	-1153.6	117.3	195.38	-1139.1	128.61	282.35	-1227.8	91.644	239.31	-1221.3	57.973	271.32	-1222.3	62.909	206.86	-1046	40.987	175.34	-1023.9	43.625	286.29	-965.23	49.714	240.18	-985.95	1494.1	292.61	-1070.3	1289.1	258.28
106	0.4375	-783.02	1271.5	302.13	-926.66	1422.9	443.35	-877.76	1468.5	152.27	-903.41	1748.9	331.27	-842.9	1009.8	396.9	-837.79	1016.4	166.97	-1043.4	1026.1	308.26	-1035.5	1033.2	227.99	-907.52	932.82	470.8	-907.22	955.18	109.88	-942.11	1089.3	437.49	-907.14	1092	138.5	-1061.9	995.9	271.14	-833.04	728.69	471.74	-759.85	669.63	430.46	-813.83	641.31	463.23	-778.48	759.31	433.48	-775.8	524.4	423.73	-787.32	520.29	293.88	-764.21	292.14	432.79	-679.88	257.76	423.36	-735.12	223.14	429.02	-704.41	331.56	425.87	-671.69	124.6	415.53	-664.25	139.3	337.26	-705.41	55.576	364.09	-683.52	35.273	337.27	-693.21	33.937	398.31	-533.42	89.942	454.2	-504.54	111.6	348.86	-462.01	149.85	393.26	-1002.7	696.42	122.82	-952.52	602.03	150.66	-1024.4	605.59	145.53	-923.97	686.06	126.89	-1015.4	510.54	158.04	-1005.2	511.41	288.39	-1126.4	320.16	162.5	-1088.4	217.85	185.99	-1143.6	245.09	175.7	-1070.6	291.96	171.94	-1153.1	117.81	195.4	-1138.5	129.09	282.36	-1227.6	92.575	239.27	-1221.1	58.84	271.3	-1222.1	63.684	206.83	-1046	40.923	175.29	-1023.8	43.624	286.24	-965.11	49.484	240.15	-980.51	1493	292.98	-1065	1287.9	258.84
107	0.44167	-777.6	1270.2	302.21	-921.01	1421.7	443.68	-872.52	1467.4	152.53	-898.11	1747.9	331.51	-837.48	1008.6	397.1	-832.37	1015.4	167.17	-1038	1024.9	308.63	-1030.1	1032.1	228.37	-902.13	931.51	471.07	-902.14	954.3	110.04	-936.59	1088	437.81	-901.7	1090.9	138.75	-1056.6	994.75	271.48	-827.82	727.49	471.94	-754.83	668.3	430.53	-808.84	640.06	463.33	-773.25	758.02	433.64	-770.5	523.46	423.68	-783.43	518.93	293.8	-756.7	291.28	432.98	-672.07	257.71	422.99	-726.93	222.55	429.08	-697.33	331.3	425.64	-662.54	124.55	415.33	-655.65	139.31	337.01	-695.93	55.191	364.1	-673.86	35.045	337.22	-683.2	33.644	398.29	-523.61	91.296	453.29	-495.54	113.31	347.81	-453.17	152.07	392.07	-998.63	696.31	123	-949.1	601.53	150.67	-1020.7	605.61	145.53	-920.1	685.48	126.88	-1012.3	510.3	158.1	-1001.8	510.99	288.44	-1124.4	320.64	162.52	-1087.2	218.03	185.98	-1142.1	245.7	175.68	-1068.9	292.02	171.99	-1152.6	118.36	195.4	-1137.8	129.61	282.34	-1227.3	93.552	239.22	-1220.8	59.758	271.27	-1221.9	64.499	206.78	-1045.9	40.857	175.25	-1023.6	43.634	286.17	-964.99	49.257	240.11	-975.05	1492	293.38	-1059.6	1286.8	259.42
